<?xml version="1.0" encoding="UTF-8" standalone="yes"?>
<svg xmlns="http://www.w3.org/2000/svg" version="1.1" baseProfile="full" viewBox="0 0 256 128" preserveAspectRatio="xMidYMid meet">
    <path d="M 48,16 h 32 v 32 h -32 Z" fill="green" />
    <path d="M 16,80 h 64 v 32 h -64 Z" fill="green" />
    <path d="M 112,48 h 32 v 64 h 96 v -32 h -128 Z" fill="green" />
    <g stroke="black" stroke-width="1">
        <line x1="16" y1="0" x2="16" y2="128" />
        <line x1="48" y1="0" x2="48" y2="128" />
        <line x1="80" y1="0" x2="80" y2="128" />
        <line x1="112" y1="0" x2="112" y2="128" />
        <line x1="144" y1="0" x2="144" y2="128" />
        <line x1="176" y1="0" x2="176" y2="128" />
        <line x1="208" y1="0" x2="208" y2="128" />
        <line x1="240" y1="0" x2="240" y2="128" />
        <line x1="0" y1="16" x2="256" y2="16" />
        <line x1="0" y1="48" x2="256" y2="48" />
        <line x1="0" y1="80" x2="256" y2="80" />
        <line x1="0" y1="112" x2="256" y2="112" />
    </g>
</svg>
